<?xml version="1.0" standalone="no"?>
<!DOCTYPE svg PUBLIC "-//W3C//DTD SVG 20010904//EN"
 "http://www.w3.org/TR/2001/REC-SVG-20010904/DTD/svg10.dtd">
<svg version="1.0" xmlns="http://www.w3.org/2000/svg"
 width="1728.000000pt" height="1080.000000pt" viewBox="0 0 1728.000000 1080.000000"
 preserveAspectRatio="xMidYMid meet">

<g transform="translate(0.000000,1080.000000) scale(0.100000,-0.100000)"
fill="#000000" stroke="none">
<path d="M8238 6832 c-53 -15 -58 -19 -58 -44 0 -23 4 -28 25 -28 22 0 25 -4
25 -35 0 -33 -1 -34 -26 -25 -70 27 -143 -4 -174 -73 -63 -139 54 -298 170
-232 33 19 40 18 40 -1 0 -14 8 -16 46 -10 26 3 55 6 65 6 14 0 19 7 19 30 0
23 -4 30 -20 30 -19 0 -20 7 -20 200 0 227 9 209 -92 182z m-24 -208 c11 -11
16 -35 16 -79 0 -53 -3 -66 -19 -75 -54 -28 -91 5 -91 82 0 73 53 114 94 72z"/>
<path d="M10883 6831 c-47 -14 -53 -19 -53 -43 0 -21 5 -28 20 -28 19 0 20 -7
20 -155 0 -148 -1 -155 -20 -155 -16 0 -20 -7 -20 -30 l0 -30 85 0 85 0 0 29
c0 16 -6 31 -15 35 -21 8 -19 30 5 51 20 18 21 18 35 -1 31 -39 37 -54 20 -54
-10 0 -15 -10 -15 -30 l0 -30 95 0 95 0 0 28 c0 20 -7 31 -24 38 -13 5 -45 33
-70 63 l-48 53 48 34 c26 19 53 34 61 34 8 0 13 12 13 30 l0 30 -95 0 -95 0 0
-30 c0 -21 5 -30 16 -30 23 0 13 -19 -24 -48 l-32 -25 0 142 c0 160 6 151 -87
122z"/>
<path d="M8476 6824 c-34 -33 -9 -94 38 -94 28 0 56 29 56 57 0 44 -63 69 -94
37z"/>
<path d="M8690 6820 c-11 -11 -20 -27 -20 -35 0 -22 37 -55 60 -55 23 0 60 33
60 55 0 22 -37 55 -60 55 -11 0 -29 -9 -40 -20z"/>
<path d="M11300 6820 c-11 -11 -20 -27 -20 -35 0 -22 37 -55 60 -55 23 0 60
33 60 55 0 22 -37 55 -60 55 -11 0 -29 -9 -40 -20z"/>
<path d="M4930 6801 c0 -23 5 -30 23 -33 22 -3 22 -5 22 -158 0 -153 0 -155
-22 -158 -18 -3 -23 -10 -23 -33 l0 -29 105 0 105 0 0 30 c0 25 -4 30 -25 30
-24 0 -25 3 -25 60 0 56 2 60 23 60 28 0 47 -17 47 -42 0 -13 8 -18 25 -18 25
0 25 0 25 95 0 95 0 95 -25 95 -17 0 -25 -5 -25 -18 0 -25 -19 -42 -47 -42
-21 0 -23 4 -23 60 l0 60 50 0 c61 0 103 -20 127 -60 19 -33 31 -37 55 -17 14
11 13 19 -10 80 l-25 67 -178 0 -179 0 0 -29z"/>
<path d="M7633 6648 c-53 -139 -75 -185 -91 -193 -15 -7 -22 -19 -22 -37 l0
-28 85 0 85 0 0 30 c0 22 -5 30 -18 30 -27 0 -32 8 -20 41 10 28 12 29 79 29
66 0 70 -1 79 -26 12 -31 6 -44 -21 -44 -14 0 -19 -7 -19 -30 l0 -30 105 0
105 0 0 28 c0 18 -7 30 -22 37 -14 7 -32 38 -55 100 -19 50 -50 132 -69 183
l-36 92 -48 0 -47 0 -70 -182z m136 -45 c1 -9 -13 -13 -39 -13 -22 0 -40 2
-40 5 0 2 10 30 22 62 l21 58 18 -50 c10 -28 18 -56 18 -62z"/>
<path d="M9080 6800 c0 -25 4 -30 24 -30 13 0 27 -7 30 -16 3 -9 6 -73 6 -144
0 -71 -3 -135 -6 -144 -3 -9 -17 -16 -30 -16 -20 0 -24 -5 -24 -30 l0 -30 90
0 90 0 0 29 c0 23 -5 30 -22 33 -23 3 -23 6 -25 143 l-2 140 40 -135 c21 -74
44 -152 50 -172 8 -33 14 -38 39 -38 32 0 27 -11 96 230 14 52 28 97 30 99 2
2 4 -57 4 -132 l0 -137 -25 0 c-21 0 -25 -5 -25 -30 l0 -30 105 0 105 0 0 29
c0 23 -5 30 -22 33 -23 3 -23 5 -23 158 0 153 0 155 23 158 17 3 22 10 22 33
l0 29 -98 0 -99 0 -22 -77 c-12 -43 -29 -102 -38 -131 -8 -30 -17 -51 -20 -49
-4 4 -21 65 -64 220 l-10 37 -99 0 -100 0 0 -30z"/>
<path d="M5445 6696 c-42 -18 -65 -43 -65 -70 0 -58 66 -59 93 -1 14 30 22 36
45 33 23 -3 27 -8 30 -40 3 -35 2 -36 -40 -43 -129 -21 -185 -92 -125 -160 31
-36 82 -42 140 -17 39 17 48 18 57 6 15 -17 71 -28 99 -19 31 9 30 62 -1 67
-22 3 -23 9 -28 98 -3 52 -9 103 -14 112 -20 42 -128 62 -191 34z m103 -198
c-4 -40 -48 -62 -74 -37 -19 20 -9 45 24 58 47 17 54 14 50 -21z"/>
<path d="M6595 6696 c-42 -18 -65 -43 -65 -70 0 -58 66 -59 93 -1 14 30 22 36
45 33 23 -3 27 -8 30 -40 3 -35 2 -36 -40 -43 -129 -21 -185 -92 -125 -160 31
-36 82 -42 140 -17 39 17 48 18 57 6 15 -17 71 -28 99 -19 31 9 30 62 -1 67
-22 3 -23 9 -28 98 -3 52 -9 103 -14 112 -20 42 -128 62 -191 34z m103 -198
c-4 -40 -48 -62 -74 -37 -19 20 -9 45 24 58 47 17 54 14 50 -21z"/>
<path d="M6943 6692 c-48 -13 -53 -18 -53 -43 0 -24 4 -29 25 -29 26 0 26 0
23 -82 -3 -77 -5 -83 -25 -86 -18 -3 -23 -10 -23 -33 l0 -29 90 0 90 0 0 30
c0 20 -5 30 -15 30 -12 0 -15 15 -15 78 0 75 1 79 25 90 36 16 62 15 69 -4 3
-9 6 -47 6 -86 0 -61 -2 -70 -20 -75 -14 -4 -20 -14 -20 -34 l0 -29 90 0 90 0
0 30 c0 23 -4 30 -20 30 -18 0 -20 7 -20 79 0 112 -7 140 -44 162 -40 24 -82
24 -131 -1 -22 -11 -41 -20 -42 -20 -2 0 -3 9 -3 20 0 23 -6 23 -77 2z"/>
<path d="M8500 6695 c-19 -7 -45 -14 -57 -14 -19 -1 -23 -7 -23 -31 0 -23 4
-30 20 -30 19 0 20 -7 20 -150 0 -102 -4 -150 -11 -150 -6 0 -22 9 -36 20 -42
33 -83 21 -83 -25 0 -73 156 -86 210 -18 18 24 20 40 20 219 0 211 3 203 -60
179z"/>
<path d="M8710 6694 c-19 -7 -43 -13 -52 -13 -28 -1 -25 -61 2 -61 18 0 20 -7
20 -85 0 -78 -2 -85 -20 -85 -16 0 -20 -7 -20 -30 l0 -30 95 0 95 0 0 30 c0
25 -4 30 -25 30 l-25 0 0 130 c0 145 2 142 -70 114z"/>
<path d="M10535 6696 c-42 -18 -65 -43 -65 -70 0 -58 66 -59 93 -1 14 30 22
36 45 33 23 -3 27 -8 30 -40 3 -35 2 -36 -40 -43 -129 -21 -185 -92 -125 -160
31 -36 82 -42 140 -17 39 17 48 18 57 6 15 -17 71 -28 99 -19 31 9 30 62 -1
67 -22 3 -23 9 -28 98 -3 52 -9 103 -14 112 -20 42 -128 62 -191 34z m103
-198 c-4 -40 -48 -62 -74 -37 -19 20 -9 45 24 58 47 17 54 14 50 -21z"/>
<path d="M11320 6694 c-19 -7 -43 -13 -52 -13 -28 -1 -25 -61 2 -61 18 0 20
-7 20 -85 0 -78 -2 -85 -20 -85 -16 0 -20 -7 -20 -30 l0 -30 95 0 95 0 0 30
c0 25 -4 30 -25 30 l-25 0 0 130 c0 145 2 142 -70 114z"/>
<path d="M5730 6670 c0 -23 5 -30 19 -30 17 0 19 -10 23 -105 3 -91 6 -107 24
-126 31 -31 99 -36 147 -11 29 16 37 17 37 6 0 -11 17 -14 70 -14 l70 0 0 30
c0 25 -4 30 -25 30 l-25 0 0 125 0 125 -70 0 -70 0 0 -30 c0 -23 4 -30 20 -30
18 0 20 -7 20 -75 0 -68 -2 -76 -24 -91 -14 -8 -35 -14 -48 -12 -22 3 -23 6
-26 121 l-3 117 -69 0 -70 0 0 -30z"/>
<path d="M6180 6654 c-25 -58 -25 -59 2 -71 19 -8 27 -5 49 19 21 22 36 28 66
28 l38 -1 -92 -87 c-80 -75 -93 -92 -93 -120 l0 -32 145 0 145 0 15 37 c29 69
29 80 2 87 -20 5 -32 -1 -55 -24 -26 -25 -38 -30 -79 -30 l-48 0 93 86 c81 76
92 90 92 120 l0 34 -130 0 -129 0 -21 -46z"/>
<path d="M9670 6670 c0 -23 5 -30 19 -30 17 0 19 -10 23 -105 3 -91 6 -107 24
-126 31 -31 99 -36 147 -11 29 16 37 17 37 6 0 -11 17 -14 70 -14 l70 0 0 30
c0 25 -4 30 -25 30 l-25 0 0 125 0 125 -70 0 -70 0 0 -30 c0 -23 4 -30 20 -30
18 0 20 -7 20 -75 0 -68 -2 -76 -24 -91 -14 -8 -35 -14 -48 -12 -22 3 -23 6
-26 121 l-3 117 -69 0 -70 0 0 -30z"/>
<path d="M10120 6654 c-25 -58 -25 -59 2 -71 19 -8 27 -5 49 19 21 22 36 28
66 28 l38 -1 -92 -87 c-80 -75 -93 -92 -93 -120 l0 -32 145 0 145 0 15 37 c29
69 29 80 2 87 -20 5 -32 -1 -55 -24 -26 -25 -38 -30 -79 -30 l-48 0 93 86 c81
76 92 90 92 120 l0 34 -130 0 -129 0 -21 -46z"/>
<path d="M6290 6076 c-20 -8 -55 -17 -78 -21 -38 -6 -42 -9 -42 -36 0 -28 2
-29 45 -29 l46 0 -3 -142 -3 -143 -42 -3 c-40 -3 -43 -5 -43 -33 l0 -29 135 0
135 0 0 29 c0 27 -3 30 -37 33 l-38 3 -3 193 c-3 214 1 205 -72 178z"/>
<path d="M6610 6068 c-55 -29 -81 -64 -87 -119 -5 -51 18 -102 59 -132 37 -27
117 -34 159 -13 41 20 48 13 22 -22 -32 -43 -80 -70 -139 -77 -54 -7 -54 -7
-54 -43 l0 -35 65 6 c164 16 254 103 255 249 0 80 -11 112 -53 156 -54 56
-151 68 -227 30z m144 -69 c52 -41 18 -139 -49 -139 -36 0 -75 42 -75 80 0 38
39 80 73 80 13 0 36 -9 51 -21z"/>
<path d="M7066 6080 c-46 -14 -95 -69 -111 -124 -41 -136 8 -278 108 -315 82
-31 181 3 225 77 24 42 27 56 27 142 0 86 -3 100 -27 142 -44 74 -132 105
-222 78z m96 -71 c31 -16 48 -71 48 -151 0 -87 -21 -138 -63 -153 -58 -20 -97
40 -97 152 0 129 43 189 112 152z"/>
<path d="M7463 6071 c-44 -21 -73 -62 -73 -106 0 -21 5 -25 30 -25 19 0 30 5
30 14 0 23 50 56 84 56 41 0 76 -25 76 -55 0 -30 -35 -55 -77 -55 -31 0 -33
-2 -33 -34 0 -32 1 -34 47 -39 70 -8 97 -63 53 -107 -39 -39 -106 -19 -130 40
-24 57 -100 48 -100 -11 0 -42 53 -94 111 -109 122 -33 249 32 249 127 0 35
-32 81 -67 94 l-24 9 30 26 c119 100 -52 244 -206 175z"/>
<path d="M7906 6080 c-46 -14 -95 -69 -111 -124 -41 -136 8 -278 108 -315 82
-31 181 3 225 77 24 42 27 56 27 142 0 86 -3 100 -27 142 -44 74 -132 105
-222 78z m96 -71 c31 -16 48 -71 48 -151 0 -87 -21 -138 -63 -153 -58 -20 -97
40 -97 152 0 129 43 189 112 152z"/>
<path d="M8303 5977 c-102 -112 -102 -112 -103 -164 l0 -53 105 0 105 0 0 -60
0 -60 45 0 45 0 0 60 0 60 45 0 45 0 0 40 0 40 -45 0 -45 0 0 125 0 125 -47
-1 -48 0 -102 -112z m104 -134 c-3 -2 -33 -3 -68 -1 l-63 3 64 69 65 69 3 -68
c2 -37 1 -69 -1 -72z"/>
<path d="M8746 6080 c-46 -14 -95 -69 -111 -124 -41 -136 8 -278 108 -315 82
-31 181 3 225 77 24 42 27 56 27 142 0 86 -3 100 -27 142 -44 74 -132 105
-222 78z m96 -71 c31 -16 48 -71 48 -151 0 -87 -21 -138 -63 -153 -58 -20 -97
40 -97 152 0 129 43 189 112 152z"/>
<path d="M9230 6076 c-20 -8 -55 -17 -78 -21 -38 -6 -42 -9 -42 -36 0 -28 2
-29 45 -29 l46 0 -3 -142 -3 -143 -42 -3 c-40 -3 -43 -5 -43 -33 l0 -29 135 0
135 0 0 29 c0 27 -3 30 -37 33 l-38 3 -3 193 c-3 214 1 205 -72 178z"/>
<path d="M9565 6071 c-61 -28 -87 -62 -93 -122 -5 -51 -4 -52 19 -46 13 4 27
7 32 7 4 0 7 10 7 23 1 65 97 101 154 56 58 -46 17 -115 -140 -235 -61 -47
-74 -62 -74 -85 l0 -27 163 -4 c89 -2 164 -2 166 -1 3 2 30 119 31 136 0 4
-13 7 -30 7 -19 0 -30 -5 -30 -14 0 -27 -28 -37 -91 -34 l-63 3 65 42 c102 67
139 115 139 181 0 99 -145 164 -255 113z"/>
<path d="M9926 6079 c-15 -45 -38 -140 -35 -143 2 -3 15 -7 29 -11 22 -5 27
-2 35 27 l10 33 95 3 95 3 -27 -28 c-65 -70 -122 -186 -134 -272 l-7 -51 55 0
54 0 12 75 c14 91 59 193 112 257 28 32 40 56 40 77 l0 31 -134 0 c-73 0 -147
3 -165 6 -21 5 -32 2 -35 -7z"/>
</g>
</svg>
